<?xml version="1.0" encoding="UTF-8"?>
<!DOCTYPE svg PUBLIC "-//W3C//DTD SVG 1.1//EN" "http://www.w3.org/Graphics/SVG/1.1/DTD/svg11.dtd">
<svg xmlns="http://www.w3.org/2000/svg" version="1.1" width="238px" height="134px" style="shape-rendering:geometricPrecision; text-rendering:geometricPrecision; image-rendering:optimizeQuality; fill-rule:evenodd; clip-rule:evenodd" xmlns:xlink="http://www.w3.org/1999/xlink">
<g><path style="opacity:0.073" fill="#167bff" d="M 118.5,-0.5 C 119.167,-0.5 119.833,-0.5 120.5,-0.5C 128.644,1.77776 131.644,7.11109 129.5,15.5C 134.5,18.5 138.5,22.5 141.5,27.5C 143.421,28.641 145.421,28.8077 147.5,28C 149.943,22.0226 154.443,19.1893 161,19.5C 167.841,18.6825 172.341,21.5159 174.5,28C 178.821,28.499 183.154,28.6657 187.5,28.5C 187.468,22.0338 190.134,17.2004 195.5,14C 205.955,11.9091 216.455,10.0757 227,8.5C 232.066,8.76413 235.566,11.0975 237.5,15.5C 237.5,18.1667 237.5,20.8333 237.5,23.5C 235.078,28.2121 234.411,33.2121 235.5,38.5C 234.807,43.6075 233.64,48.6075 232,53.5C 229.876,57.313 226.709,59.813 222.5,61C 228.742,65.9023 229.075,71.2357 223.5,77C 219.419,79.0608 215.419,78.8942 211.5,76.5C 209.843,79.0893 209.509,81.7559 210.5,84.5C 210.21,89.2477 208.21,93.0811 204.5,96C 208.599,96.5471 211.932,98.3805 214.5,101.5C 221.38,97.7715 225.713,99.7715 227.5,107.5C 225.411,111.934 224.244,116.6 224,121.5C 222.542,123.96 220.709,126.127 218.5,128C 212.962,130.626 207.295,132.46 201.5,133.5C 197.833,133.5 194.167,133.5 190.5,133.5C 183.103,132.53 176.27,129.863 170,125.5C 167.031,120.987 166.864,116.487 169.5,112C 165.113,111.774 160.779,111.274 156.5,110.5C 155.205,111.098 153.872,111.598 152.5,112C 153.331,116.288 151.998,119.955 148.5,123C 137.99,122.871 127.49,123.704 117,125.5C 108.864,125.077 100.697,124.077 92.5,122.5C 84.4573,125.236 76.4573,125.069 68.5,122C 65.1933,118.931 63.6933,115.098 64,110.5C 59.1373,112.762 54.1373,112.762 49,110.5C 43.194,111.554 37.3606,111.72 31.5,111C 30.0692,110.535 28.9025,109.701 28,108.5C 24.7303,98.1914 21.5636,87.8581 18.5,77.5C 14.4681,76.7751 10.4681,75.9418 6.5,75C 4.68297,73.2002 3.5163,71.0336 3,68.5C 1.64116,67.635 0.47449,66.635 -0.5,65.5C -0.5,63.1667 -0.5,60.8333 -0.5,58.5C 0.484444,55.9487 1.48444,53.2821 2.5,50.5C -0.0835949,44.8015 0.0830717,39.1349 3,33.5C 6.67158,30.6444 9.50492,27.1444 11.5,23C 14.3508,21.7114 17.3508,21.2114 20.5,21.5C 20.1729,19.5122 19.8396,17.5122 19.5,15.5C 19.3898,13.626 20.0564,12.126 21.5,11C 26.5979,8.58705 31.5979,8.42038 36.5,10.5C 40.4072,4.85563 45.7405,3.0223 52.5,5C 53.5,8.33333 54.5,8.33333 55.5,5C 60.1542,2.6975 64.1542,3.53084 67.5,7.5C 77.8493,7.35541 83.6826,12.3554 85,22.5C 87.3968,19.6 90.2302,17.2667 93.5,15.5C 94.5011,11.653 96.1678,8.15296 98.5,5C 105.191,2.83647 111.858,1.00314 118.5,-0.5 Z"/></g>
<g><path style="opacity:1" fill="#e3e8f1" d="M 114.5,3.5 C 119.535,2.5021 123.702,3.83543 127,7.5C 126.923,11.2292 127.09,14.8959 127.5,18.5C 132.5,21.5 136.5,25.5 139.5,30.5C 143.107,31.4892 146.774,31.8226 150.5,31.5C 152.986,22.4665 158.653,19.9665 167.5,24C 170.397,25.7155 171.731,28.2155 171.5,31.5C 177.833,31.5 184.167,31.5 190.5,31.5C 190.105,25.8927 191.772,21.0594 195.5,17C 205.866,15.3052 216.199,13.4718 226.5,11.5C 233.666,12.5106 236.166,16.5106 234,23.5C 233.02,26.8981 231.854,30.2315 230.5,33.5C 231.937,35.0212 232.604,36.8546 232.5,39C 231.89,45.4234 229.557,51.09 225.5,56C 222.312,57.3158 218.978,57.8158 215.5,57.5C 215.167,59.5 214.833,61.5 214.5,63.5C 221.327,62.1737 224.494,64.8404 224,71.5C 219.951,76.8184 215.951,76.8184 212,71.5C 207.163,76.4198 205.163,82.4198 206,89.5C 203.292,92.1967 201.459,95.3634 200.5,99C 205.817,99.0989 210.317,100.932 214,104.5C 215.928,104.067 217.761,103.4 219.5,102.5C 221.029,102.529 222.196,103.196 223,104.5C 222.786,109.84 222.119,115.174 221,120.5C 219.235,123.473 216.735,125.64 213.5,127C 202.612,131.046 191.612,131.38 180.5,128C 168.471,123.128 167.471,116.794 177.5,109C 174.776,108.73 172.109,108.23 169.5,107.5C 164.854,108.776 160.187,108.776 155.5,107.5C 153.803,107.899 152.137,108.399 150.5,109C 149.718,111.74 149.218,114.574 149,117.5C 148.5,118.667 147.667,119.5 146.5,120C 140.584,120.807 134.75,120.641 129,119.5C 125.212,121.142 121.212,122.142 117,122.5C 108.542,121.04 100.042,120.04 91.5,119.5C 84.8695,121.663 78.2029,121.83 71.5,120C 67.1023,116.78 66.4357,112.947 69.5,108.5C 69.1131,107.28 68.2798,106.613 67,106.5C 60.7929,109.083 54.6262,109.083 48.5,106.5C 43.3527,108.499 38.0194,108.999 32.5,108C 31.6667,107.167 30.8333,106.333 30,105.5C 27.4069,95.0536 24.4069,84.7202 21,74.5C 17.2546,73.703 13.4213,73.203 9.5,73C 7.51108,70.0443 5.34441,67.2109 3,64.5C 2.33333,62.5 2.33333,60.5 3,58.5C 5.85061,53.6556 6.01728,48.8223 3.5,44C 3.14877,38.6537 5.31544,34.8204 10,32.5C 11.5077,25.1524 16.0077,22.4858 23.5,24.5C 23.3573,22.7376 23.6906,21.0709 24.5,19.5C 21.9199,17.287 21.9199,15.1203 24.5,13C 29.4359,11.8769 33.9359,12.7102 38,15.5C 39.4813,12.744 41.3147,10.244 43.5,8C 47.9425,6.62169 51.4425,7.78836 54,11.5C 56.2196,10.013 58.2196,8.34635 60,6.5C 61.982,6.99035 63.6487,7.99035 65,9.5C 65.6813,11.8947 66.5147,14.228 67.5,16.5C 68.7688,11.3305 71.7688,10.1639 76.5,13C 81.3396,16.0406 82.6729,20.2073 80.5,25.5C 81.5,25.8333 82.5,26.1667 83.5,26.5C 88.0786,22.5315 93.0786,19.0315 98.5,16C 97.144,12.3469 98.144,9.34686 101.5,7C 106.012,6.03762 110.345,4.87096 114.5,3.5 Z"/></g>
<g><path style="opacity:1" fill="#14130f" d="M 77.5,25.5 C 77.5858,26.4959 77.2524,27.3292 76.5,28C 83.735,30.1777 89.4016,28.1777 93.5,22C 96.3004,20.6909 98.9671,19.1909 101.5,17.5C 100.017,14.5891 100.35,11.9225 102.5,9.5C 108.097,7.91354 113.764,6.5802 119.5,5.5C 121.187,5.7605 122.687,6.42717 124,7.5C 124.762,11.3316 124.262,14.9982 122.5,18.5C 125.491,20.3296 128.491,22.1629 131.5,24C 134.751,27.4194 137.418,31.2527 139.5,35.5C 143.557,33.6407 147.891,32.974 152.5,33.5C 152.611,27.8882 155.444,25.2215 161,25.5C 167.142,24.8121 169.642,27.4788 168.5,33.5C 176.833,33.5 185.167,33.5 193.5,33.5C 192.779,27.9989 194.112,23.1656 197.5,19C 208.093,16.7953 218.759,15.462 229.5,15C 231.124,16.1171 232.124,17.6171 232.5,19.5C 231.181,23.1081 230.014,26.7748 229,30.5C 226.734,31.9563 224.234,32.7896 221.5,33C 226.372,32.2951 229.372,34.2951 230.5,39C 229.077,44.2786 227.077,49.2786 224.5,54C 220.911,54.2069 217.411,54.7069 214,55.5C 212.423,60.31 210.923,65.1434 209.5,70C 208.183,71.6143 206.517,72.7809 204.5,73.5C 205.491,76.2441 205.157,78.9107 203.5,81.5C 205.242,86.0314 204.075,89.6981 200,92.5C 198.74,97.2919 196.906,101.792 194.5,106C 186.917,107.588 183.584,104.422 184.5,96.5C 183.197,99.0431 182.197,101.71 181.5,104.5C 177.29,106.002 173.29,105.669 169.5,103.5C 166.09,105.479 162.423,105.979 158.5,105C 157.874,104.25 157.374,103.416 157,102.5C 153.513,104.655 150.18,106.989 147,109.5C 148.041,112.525 147.541,115.358 145.5,118C 139.929,118.443 134.429,117.943 129,116.5C 122.26,120.19 115.594,120.19 109,116.5C 107.701,117.98 106.034,118.646 104,118.5C 99.7832,118.036 95.6165,117.369 91.5,116.5C 84.0177,120.628 76.8511,120.294 70,115.5C 69.72,111.422 71.5533,108.589 75.5,107C 71.8217,106.991 69.6551,105.157 69,101.5C 62.351,107.48 55.5177,107.814 48.5,102.5C 47.4981,100.49 46.4981,98.4899 45.5,96.5C 45.7174,99.4897 45.3841,102.656 44.5,106C 40.8333,106.667 37.1667,106.667 33.5,106C 29.4546,94.3642 26.1212,82.5308 23.5,70.5C 18.7863,70.8266 14.1196,70.4933 9.5,69.5C 8.98168,67.1002 7.81501,65.1002 6,63.5C 5.70074,58.3511 6.53407,53.3511 8.5,48.5C 5.97747,44.3285 5.97747,40.1618 8.5,36C 9.79323,35.51 11.1266,35.3433 12.5,35.5C 12.24,27.5939 15.9066,24.7605 23.5,27C 26.0443,29.4468 26.0443,31.9468 23.5,34.5C 23.8333,34.8333 24.1667,35.1667 24.5,35.5C 25.8448,34.6533 26.8448,33.4866 27.5,32C 28.5,31.6667 29.5,31.3333 30.5,31C 24.7221,27.2745 24.0554,22.7745 28.5,17.5C 24.5172,15.6904 24.8506,14.6904 29.5,14.5C 33.9317,14.5435 36.5984,16.7101 37.5,21C 36.6681,23.4783 36.5014,25.9783 37,28.5C 38.9036,29.6469 40.4036,29.1469 41.5,27C 38.2874,21.9467 38.954,17.6134 43.5,14C 42.0196,12.1186 42.5196,10.952 45,10.5C 46.927,11.861 49.0937,12.6943 51.5,13C 51.2073,16.7366 51.0406,20.5699 51,24.5C 48.8322,25.6291 48.3322,27.1291 49.5,29C 51.2182,29.346 52.8849,29.846 54.5,30.5C 57.1912,28.3279 57.0245,26.3279 54,24.5C 53.3333,22.5 53.3333,20.5 54,18.5C 56.4772,17.1246 57.3106,15.2912 56.5,13C 58.3073,12.0723 59.974,10.9056 61.5,9.5C 62.5896,10.3914 62.5896,11.3914 61.5,12.5C 63.418,15.2359 65.0847,18.0693 66.5,21C 66.2587,22.9836 65.5921,24.8169 64.5,26.5C 66.1932,27.2283 67.6932,28.2283 69,29.5C 66.1568,24.1127 67.3235,19.6127 72.5,16C 71.2888,15.1072 71.2888,14.2739 72.5,13.5C 77.2744,15.7258 79.441,19.3925 79,24.5C 78.6174,25.056 78.1174,25.3893 77.5,25.5 Z"/></g>
<g><path style="opacity:1" fill="#e61812" d="M 122.5,65.5 C 120.5,66.1667 118.5,66.8333 116.5,67.5C 111.562,68.3924 106.562,68.7257 101.5,68.5C 101.342,65.4545 102.009,62.6212 103.5,60C 116.434,61.8649 124.1,56.3649 126.5,43.5C 124.031,31.4254 116.698,26.5921 104.5,29C 97.0374,31.9637 93.3707,37.4637 93.5,45.5C 91.1667,45.5 88.8333,45.5 86.5,45.5C 85.6618,45.1583 85.3284,44.4916 85.5,43.5C 85.5838,40.6726 86.2504,38.006 87.5,35.5C 88.2341,34.2921 88.5674,32.9587 88.5,31.5C 93.3175,25.9184 99.3175,22.085 106.5,20C 105.773,17.876 105.106,15.7094 104.5,13.5C 104.833,13.1667 105.167,12.8333 105.5,12.5C 109.682,11.4438 113.849,10.4438 118,9.5C 117.134,13.1077 116.467,16.7744 116,20.5C 134.139,28.2534 138.806,40.9201 130,58.5C 127.604,61.0666 125.104,63.4 122.5,65.5 Z"/></g>
<g><path style="opacity:1" fill="#dbdbdc" d="M 44.5,15.5 C 46.6807,15.2837 48.3474,16.117 49.5,18C 47.1713,18.3955 45.5046,17.5622 44.5,15.5 Z"/></g>
<g><path style="opacity:1" fill="#e9e9e9" d="M 58.5,17.5 C 61.254,19.0528 62.0874,21.3861 61,24.5C 60.2825,25.4506 59.4491,25.6172 58.5,25C 60.4206,23.7592 60.754,22.2592 59.5,20.5C 58.5726,22.1128 57.7393,23.7795 57,25.5C 56.9219,23.3435 56.7552,21.3435 56.5,19.5C 57.2427,18.8182 57.9094,18.1515 58.5,17.5 Z"/></g>
<g><path style="opacity:1" fill="#e3e3e3" d="M 42.5,20.5 C 43.2739,19.8529 44.2739,19.5195 45.5,19.5C 47.3186,19.3422 48.6519,20.0089 49.5,21.5C 48.4182,23.7837 46.7516,24.9504 44.5,25C 48.8127,21.6507 48.146,20.1507 42.5,20.5 Z"/></g>
<g><path style="opacity:1" fill="#eae402" d="M 122.5,65.5 C 125.104,63.4 127.604,61.0666 130,58.5C 138.806,40.9201 134.139,28.2534 116,20.5C 116.467,16.7744 117.134,13.1077 118,9.5C 113.849,10.4438 109.682,11.4438 105.5,12.5C 105.167,12.8333 104.833,13.1667 104.5,13.5C 105.106,15.7094 105.773,17.876 106.5,20C 99.3175,22.085 93.3175,25.9184 88.5,31.5C 89.2423,29.5742 90.2423,27.7409 91.5,26C 95.5157,22.9908 99.849,20.4908 104.5,18.5C 102.934,16.0378 102.601,13.5378 103.5,11C 109.111,9.73129 114.778,8.89796 120.5,8.5C 119.131,12.0924 118.298,15.7591 118,19.5C 135.33,27.8442 139.996,40.8442 132,58.5C 129.469,61.8881 126.302,64.2214 122.5,65.5 Z"/></g>
<g><path style="opacity:1" fill="#cdcdcd" d="M 30.5,17.5 C 31.9311,18.0819 33.2644,18.9152 34.5,20C 33.6919,20.3076 33.0253,20.8076 32.5,21.5C 33.1667,22.5 33.8333,23.5 34.5,24.5C 32.7343,25.6667 30.401,26.3334 27.5,26.5C 29.2737,23.8819 30.2737,20.8819 30.5,17.5 Z"/></g>
<g><path style="opacity:1" fill="#cbcbcc" d="M 62.5,18.5 C 64.4759,19.4271 64.8092,20.7605 63.5,22.5C 62.5713,21.3112 62.238,19.9778 62.5,18.5 Z"/></g>
<g><path style="opacity:1" fill="#d6d6d6" d="M 77.5,25.5 C 75.8148,24.8163 74.8148,23.483 74.5,21.5C 74.8333,21.1667 75.1667,20.8333 75.5,20.5C 76.562,22.0217 77.2287,23.6883 77.5,25.5 Z"/></g>
<g><path style="opacity:1" fill="#d3d4d4" d="M 69.5,20.5 C 70.926,21.8015 72.2593,23.3015 73.5,25C 72.4642,26.6169 71.2975,26.7836 70,25.5C 69.5065,23.8659 69.3398,22.1992 69.5,20.5 Z"/></g>
<g><path style="opacity:1" fill="#e5df01" d="M 143.5,65.5 C 147.171,60.3196 150.671,54.9863 154,49.5C 153.374,55.1419 152.541,60.8086 151.5,66.5C 154.167,66.5 156.833,66.5 159.5,66.5C 159.713,59.8259 160.046,53.1593 160.5,46.5C 161.833,46.5 163.167,46.5 164.5,46.5C 164.851,43.7623 165.518,41.0956 166.5,38.5C 165.311,37.5713 163.978,37.238 162.5,37.5C 162.5,34.8333 162.5,32.1667 162.5,29.5C 157.541,29.0102 154.874,31.3436 154.5,36.5C 150.5,37.1667 146.5,37.8333 142.5,38.5C 141.518,41.0956 140.851,43.7623 140.5,46.5C 143.187,46.3359 145.854,46.5026 148.5,47C 143.623,52.3726 138.956,57.8726 134.5,63.5C 132.972,63.4827 132.472,62.816 133,61.5C 137.534,57.3006 141.701,52.8006 145.5,48C 143.5,47.6667 141.5,47.3333 139.5,47C 139.043,46.586 138.709,46.086 138.5,45.5C 139.775,42.6272 140.608,39.6272 141,36.5C 145.121,35.8612 149.287,35.1945 153.5,34.5C 154.214,32.1889 155.214,30.0223 156.5,28C 163.651,25.8167 165.984,28.1501 163.5,35C 176.496,35.4999 189.496,35.6666 202.5,35.5C 202.421,34.0695 202.754,32.7362 203.5,31.5C 200.914,30.52 198.247,30.1866 195.5,30.5C 195.107,27.0703 195.773,23.9036 197.5,21C 207.462,19.1728 217.462,17.6728 227.5,16.5C 227.143,20.263 226.31,23.9296 225,27.5C 222.931,28.2638 220.764,28.7638 218.5,29C 217.308,30.9124 216.308,32.9124 215.5,35C 218.758,35.2117 221.924,35.7117 225,36.5C 224.86,41.2272 223.693,45.7272 221.5,50C 217.789,50.1747 214.122,50.6747 210.5,51.5C 208.833,56.8333 207.167,62.1667 205.5,67.5C 202.216,68.657 198.882,68.8236 195.5,68C 195.043,67.586 194.709,67.086 194.5,66.5C 196.073,61.2805 197.74,56.1138 199.5,51C 195.911,50.7931 192.411,50.2931 189,49.5C 185.745,55.0084 182.745,60.675 180,66.5C 177.733,67.2892 175.4,67.9559 173,68.5C 171.72,68.3865 170.887,67.7199 170.5,66.5C 172.36,62.9175 174.027,59.2508 175.5,55.5C 172.232,54.513 168.898,54.1796 165.5,54.5C 165.5,52.1667 165.5,49.8333 165.5,47.5C 164.178,47.33 163.011,47.6634 162,48.5C 161.826,55.1327 160.992,61.6327 159.5,68C 156.24,68.7835 153.073,68.6168 150,67.5C 150.024,64.0945 150.357,60.7611 151,57.5C 149.088,59.6572 147.421,61.9906 146,64.5C 145.329,65.2524 144.496,65.5858 143.5,65.5 Z"/></g>
<g><path style="opacity:1" fill="#e61412" d="M 219.5,18.5 C 221.5,18.5 223.5,18.5 225.5,18.5C 225.167,21.1667 224.833,23.8333 224.5,26.5C 222.143,26.3367 219.81,26.5034 217.5,27C 215.878,30.0274 214.545,33.1941 213.5,36.5C 216.768,37.487 220.102,37.8204 223.5,37.5C 223.208,41.2073 222.208,44.7073 220.5,48C 216.789,48.1747 213.122,48.6747 209.5,49.5C 207.833,54.8333 206.167,60.1667 204.5,65.5C 201.833,66.8333 199.167,66.8333 196.5,65.5C 198.167,60.1667 199.833,54.8333 201.5,49.5C 197.833,48.8333 194.167,48.1667 190.5,47.5C 191.704,44.2606 193.038,41.094 194.5,38C 197.553,37.8214 200.553,37.3214 203.5,36.5C 204.482,33.9044 205.149,31.2377 205.5,28.5C 202.833,28.5 200.167,28.5 197.5,28.5C 197.261,26.5328 197.594,24.6995 198.5,23C 205.633,21.484 212.633,19.984 219.5,18.5 Z"/></g>
<g><path style="opacity:1" fill="#efe801" d="M 116.5,67.5 C 116.119,68.9311 115.119,69.7645 113.5,70C 108.796,70.6477 104.129,70.481 99.5,69.5C 99.4878,65.3814 100.488,61.5481 102.5,58C 110.095,60.0248 116.595,58.1915 122,52.5C 126.648,43.6133 124.815,36.4466 116.5,31C 103.53,27.6271 96.1966,32.6271 94.5,46C 91.633,46.8007 88.9664,46.6341 86.5,45.5C 88.8333,45.5 91.1667,45.5 93.5,45.5C 93.3707,37.4637 97.0374,31.9637 104.5,29C 116.698,26.5921 124.031,31.4254 126.5,43.5C 124.1,56.3649 116.434,61.8649 103.5,60C 102.009,62.6212 101.342,65.4545 101.5,68.5C 106.562,68.7257 111.562,68.3924 116.5,67.5 Z"/></g>
<g><path style="opacity:1" fill="#e61d12" d="M 143.5,65.5 C 140.754,63.8736 137.754,63.2069 134.5,63.5C 138.956,57.8726 143.623,52.3726 148.5,47C 145.854,46.5026 143.187,46.3359 140.5,46.5C 140.851,43.7623 141.518,41.0956 142.5,38.5C 146.5,37.8333 150.5,37.1667 154.5,36.5C 154.874,31.3436 157.541,29.0102 162.5,29.5C 162.5,32.1667 162.5,34.8333 162.5,37.5C 163.978,37.238 165.311,37.5713 166.5,38.5C 165.518,41.0956 164.851,43.7623 164.5,46.5C 163.167,46.5 161.833,46.5 160.5,46.5C 160.046,53.1593 159.713,59.8259 159.5,66.5C 156.833,66.5 154.167,66.5 151.5,66.5C 152.541,60.8086 153.374,55.1419 154,49.5C 150.671,54.9863 147.171,60.3196 143.5,65.5 Z"/></g>
<g><path style="opacity:1" fill="#dfca02" d="M 57.5,29.5 C 59.8333,29.5 62.1667,29.5 64.5,29.5C 64.7135,31.1439 64.3802,32.6439 63.5,34C 61.5273,34.4955 59.5273,34.6621 57.5,34.5C 57.5,32.8333 57.5,31.1667 57.5,29.5 Z"/></g>
<g><path style="opacity:1" fill="#e1e1e2" d="M 102.5,34.5 C 103.386,33.2241 104.386,33.2241 105.5,34.5C 106.833,36.5 108.167,38.5 109.5,40.5C 108.758,41.2868 107.925,41.9535 107,42.5C 105.395,39.8085 103.895,37.1418 102.5,34.5 Z"/></g>
<g><path style="opacity:1" fill="#e6e6e7" d="M 48.5,33.5 C 49.9778,33.238 51.3112,33.5713 52.5,34.5C 50.9951,35.8415 50.3285,37.5082 50.5,39.5C 56.3534,37.5984 57.0201,38.7651 52.5,43C 48.492,44.4156 46.1587,43.0823 45.5,39C 45.8627,36.8077 46.8627,34.9744 48.5,33.5 Z"/></g>
<g><path style="opacity:1" fill="#ea94c4" d="M 106.5,33.5 C 108.966,32.3659 111.633,32.1993 114.5,33C 112.333,33.8333 110.833,35.3333 110,37.5C 108.595,36.2695 107.429,34.9361 106.5,33.5 Z"/></g>
<g><path style="opacity:1" fill="#ead101" d="M 69.5,31.5 C 74.5111,31.3341 79.5111,31.5007 84.5,32C 81.8084,34.5572 79.475,37.3905 77.5,40.5C 79.8333,43.1667 82.1667,45.8333 84.5,48.5C 82.1667,49.8333 79.8333,49.8333 77.5,48.5C 74.564,43.1239 71.8973,43.2906 69.5,49C 67.7412,49.7975 66.0745,49.6309 64.5,48.5C 67.3174,46.1833 69.9841,43.6833 72.5,41C 70.4701,39.1038 68.8034,36.9371 67.5,34.5C 68.1925,33.4822 68.8592,32.4822 69.5,31.5 Z"/></g>
<g><path style="opacity:1" fill="#251f07" d="M 72.5,34.5 C 74.5273,34.3379 76.5273,34.5045 78.5,35C 75.9311,38.5094 73.9311,38.3428 72.5,34.5 Z"/></g>
<g><path style="opacity:1" fill="#eaeaea" d="M 62.5,37.5 C 63.8734,37.3433 65.2068,37.51 66.5,38C 65.0267,38.7096 64.3601,39.8762 64.5,41.5C 68.2896,41.0077 68.9563,41.841 66.5,44C 61.7954,44.1057 60.4621,41.939 62.5,37.5 Z"/></g>
<g><path style="opacity:1" fill="#dbd602" d="M 87.5,35.5 C 86.2504,38.006 85.5838,40.6726 85.5,43.5C 82.9644,40.4435 83.6311,37.7768 87.5,35.5 Z"/></g>
<g><path style="opacity:1" fill="#c584b0" d="M 101.5,37.5 C 102.601,38.8484 103.601,40.3484 104.5,42C 103.551,42.6172 102.718,42.4506 102,41.5C 101.51,40.2068 101.343,38.8734 101.5,37.5 Z"/></g>
<g><path style="opacity:1" fill="#68bd3e" d="M 121.5,45.5 C 121.461,44.4168 121.127,43.4168 120.5,42.5C 117.914,41.52 115.247,41.1866 112.5,41.5C 112.083,36.9315 114.083,35.4315 118.5,37C 121.762,39.2996 122.762,42.1329 121.5,45.5 Z"/></g>
<g><path style="opacity:1" fill="#e61b12" d="M 168.5,37.5 C 170.5,37.5 172.5,37.5 174.5,37.5C 173.373,42.4664 172.373,47.4664 171.5,52.5C 169.833,52.5 168.167,52.5 166.5,52.5C 167.275,47.5157 167.942,42.5157 168.5,37.5 Z"/></g>
<g><path style="opacity:1" fill="#e61c12" d="M 176.5,37.5 C 178.604,37.2011 180.604,37.5344 182.5,38.5C 180.412,42.3125 179.245,46.3125 179,50.5C 180.704,46.2594 182.538,42.0928 184.5,38C 187.167,37.3333 189.833,37.3333 192.5,38C 187.562,47.2095 182.895,56.5428 178.5,66C 176.5,66.6667 174.5,66.6667 172.5,66C 174.873,61.7559 176.539,57.2559 177.5,52.5C 176.167,52.5 174.833,52.5 173.5,52.5C 174.025,47.4004 175.025,42.4004 176.5,37.5 Z"/></g>
<g><path style="opacity:1" fill="#dededf" d="M 107.5,43.5 C 108.833,43.5 110.167,43.5 111.5,43.5C 111.778,45.3464 111.111,46.6798 109.5,47.5C 107.889,46.6798 107.222,45.3464 107.5,43.5 Z"/></g>
<g><path style="opacity:1" fill="#f9f9fa" d="M 113.5,43.5 C 120.108,43.2706 120.608,43.9373 115,45.5C 113.97,45.1639 113.47,44.4972 113.5,43.5 Z"/></g>
<g><path style="opacity:1" fill="#f1d001" d="M 40.5,30.5 C 41.8333,30.5 43.1667,30.5 44.5,30.5C 44.5869,35.9991 41.9202,38.3324 36.5,37.5C 35.8333,40.1667 35.1667,42.8333 34.5,45.5C 36.8333,45.5 39.1667,45.5 41.5,45.5C 41.7135,47.1439 41.3802,48.6439 40.5,50C 38.1902,50.4966 35.8568,50.6633 33.5,50.5C 33.2689,55.0491 35.2689,58.0491 39.5,59.5C 41.0004,59.5472 42.0004,58.8805 42.5,57.5C 40.9604,56.4679 40.4604,55.1346 41,53.5C 42.987,51.9123 45.1537,51.0789 47.5,51C 46.4258,51.7387 45.7591,52.7387 45.5,54C 46.8001,56.4373 47.8001,58.9373 48.5,61.5C 43.5108,61.0395 38.8441,62.0395 34.5,64.5C 31.9405,62.0478 30.4405,59.0478 30,55.5C 28.6011,58.3634 27.6011,61.3634 27,64.5C 25.1159,66.5763 22.9492,66.9097 20.5,65.5C 22.5,60.8333 24.5,56.1667 26.5,51.5C 25.1667,50.8333 23.8333,50.1667 22.5,49.5C 23.2458,48.2638 23.5792,46.9305 23.5,45.5C 28.3346,46.3394 31.0013,44.3394 31.5,39.5C 30.3112,38.5713 28.9778,38.238 27.5,38.5C 27.2965,36.6096 27.9632,35.1096 29.5,34C 33.3326,32.9662 36.9993,31.7995 40.5,30.5 Z"/></g>
<g><path style="opacity:1" fill="#eed001" d="M 54.5,43.5 C 56.604,43.2011 58.604,43.5344 60.5,44.5C 58.6537,50.886 56.6537,57.2193 54.5,63.5C 52.6162,62.8853 51.6162,61.552 51.5,59.5C 52.5107,54.1447 53.5107,48.8114 54.5,43.5 Z"/></g>
<g><path style="opacity:1" fill="#988ec7" d="M 98.5,41.5 C 99.9732,43.7715 102.14,45.1048 105,45.5C 108.655,50.1862 107.489,52.3528 101.5,52C 98.7691,49.1034 97.7691,45.6034 98.5,41.5 Z"/></g>
<g><path style="opacity:1" fill="#5fac3a" d="M 121.5,45.5 C 121.377,50.8677 120.377,51.3677 118.5,47C 119.244,45.9614 120.244,45.4614 121.5,45.5 Z"/></g>
<g><path style="opacity:1" fill="#36b2dc" d="M 113.5,47.5 C 117.411,49.9787 117.411,52.812 113.5,56C 111.098,56.8141 108.765,56.6474 106.5,55.5C 108.829,54.2292 109.995,52.2292 110,49.5C 111.302,48.9152 112.469,48.2485 113.5,47.5 Z"/></g>
<g><path style="opacity:1" fill="#f6d401" d="M 71.5,48.5 C 72.8333,48.5 74.1667,48.5 75.5,48.5C 75.5,49.8333 75.5,51.1667 75.5,52.5C 78.1667,52.5 80.8333,52.5 83.5,52.5C 83.67,53.8221 83.3366,54.9887 82.5,56C 79.5184,56.498 76.5184,56.6646 73.5,56.5C 73.1667,58.5 72.8333,60.5 72.5,62.5C 76.226,62.1774 79.8927,62.5108 83.5,63.5C 83.1667,64.1667 82.8333,64.8333 82.5,65.5C 74.8622,66.4975 67.1955,66.8308 59.5,66.5C 59.5,65.1667 59.5,63.8333 59.5,62.5C 62.5,62.5 65.5,62.5 68.5,62.5C 68.3573,60.7376 68.6906,59.0709 69.5,57.5C 66.8929,56.6816 64.2263,56.1816 61.5,56C 62.3366,54.9887 62.67,53.8221 62.5,52.5C 65.1873,52.6641 67.854,52.4974 70.5,52C 71.3366,50.9887 71.67,49.8221 71.5,48.5 Z"/></g>
<g><path style="opacity:1" fill="#dee4ec" d="M 87.5,51.5 C 90.1873,51.3359 92.854,51.5026 95.5,52C 96.8259,54.1584 98.4925,55.9918 100.5,57.5C 98.6085,60.942 97.6085,64.6087 97.5,68.5C 94.8127,68.3359 92.146,68.5026 89.5,69C 87.6969,69.6368 86.3636,70.8035 85.5,72.5C 82.919,71.3196 83.0857,70.3196 86,69.5C 87.9921,65.9735 87.8254,62.6402 85.5,59.5C 86.7853,56.9795 87.4519,54.3128 87.5,51.5 Z"/></g>
<g><path style="opacity:1" fill="#eed301" d="M 15.5,29.5 C 17.1667,29.5 18.8333,29.5 20.5,29.5C 20.4519,32.3128 19.7853,34.9795 18.5,37.5C 20.4233,38.3078 22.4233,38.8078 24.5,39C 20.6001,47.8666 17.6001,57.0333 15.5,66.5C 14.1667,66.5 12.8333,66.5 11.5,66.5C 11.4208,65.0695 11.7542,63.7362 12.5,62.5C 10.8333,61.8333 9.16667,61.1667 7.5,60.5C 9.16667,55.1667 10.8333,49.8333 12.5,44.5C 11.3112,43.5713 9.97782,43.238 8.5,43.5C 8.5062,39.8981 10.3395,37.8981 14,37.5C 14.567,34.8323 15.067,32.1656 15.5,29.5 Z"/></g>
<g><path style="opacity:1" fill="#1d1806" d="M 15.5,43.5 C 16.552,43.3505 17.552,43.5172 18.5,44C 16.9277,48.4471 15.4277,52.9471 14,57.5C 12.8438,58.9928 12.0104,58.8261 11.5,57C 13.1438,52.5708 14.4771,48.0708 15.5,43.5 Z"/></g>
<g><path style="opacity:0.109" fill="#1178ff" d="M 90.5,53.5 C 92.9032,53.393 94.7365,54.393 96,56.5C 96.3013,59.5071 96.1346,62.5071 95.5,65.5C 93.8333,65.5 92.1667,65.5 90.5,65.5C 89.5877,61.4291 89.5877,57.4291 90.5,53.5 Z"/></g>
<g><path style="opacity:1" fill="#ebf0f6" d="M 191.5,54.5 C 193.288,54.2148 194.955,54.5481 196.5,55.5C 193.377,60.6107 192.544,65.944 194,71.5C 194.75,72.1258 195.584,72.6258 196.5,73C 194.447,74.0803 192.28,74.9136 190,75.5C 188.939,72.4384 187.106,69.9384 184.5,68C 186.974,63.5518 189.307,59.0518 191.5,54.5 Z"/></g>
<g><path style="opacity:1" fill="#f0f0f0" d="M 165.5,58.5 C 167.5,58.5 169.5,58.5 171.5,58.5C 170.798,61.5778 169.798,64.5778 168.5,67.5C 169.583,69.8749 169.583,72.2083 168.5,74.5C 166.615,73.3906 164.615,72.5573 162.5,72C 164.615,67.8385 165.615,63.3385 165.5,58.5 Z"/></g>
<g><path style="opacity:0.61" fill="#3b8aff" d="M 191.5,58.5 C 192.097,58.7352 192.43,59.2352 192.5,60C 191.186,63.3831 190.353,66.8831 190,70.5C 189.056,69.737 188.556,68.737 188.5,67.5C 189.308,64.4083 190.308,61.4083 191.5,58.5 Z"/></g>
<g><path style="opacity:1" fill="#f4f1ea" d="M 40.5,64.5 C 51.9032,62.6894 59.2365,67.1894 62.5,78C 62.4349,80.5259 61.7683,82.8593 60.5,85C 53.808,83.6853 49.4747,86.1853 47.5,92.5C 45.5767,93.3078 43.5767,93.8078 41.5,94C 42.2113,96.7963 42.878,99.6296 43.5,102.5C 40.6281,103.783 37.7947,103.783 35,102.5C 32.2679,92.8038 29.4346,83.1371 26.5,73.5C 26.6082,72.5581 26.9415,71.7247 27.5,71C 31.9252,68.7874 36.2585,66.6207 40.5,64.5 Z"/></g>
<g><path style="opacity:1" fill="#848484" d="M 215.5,65.5 C 219.145,64.6797 221.478,66.013 222.5,69.5C 220.086,74.2593 217.252,74.5926 214,70.5C 213.387,68.5048 213.887,66.8381 215.5,65.5 Z"/></g>
<g><path style="opacity:1" fill="#e9b630" d="M 128.5,66.5 C 143.667,64.4863 149.333,70.653 145.5,85C 142.249,86.5774 139.249,88.5774 136.5,91C 134.19,91.4966 131.857,91.6633 129.5,91.5C 130.004,95.5066 130.17,99.5066 130,103.5C 128.103,101.984 125.936,101.317 123.5,101.5C 121.696,91.7072 120.029,81.8739 118.5,72C 118.645,71.228 118.978,70.5613 119.5,70C 122.598,68.7724 125.598,67.6057 128.5,66.5 Z"/></g>
<g><path style="opacity:1" fill="#fcf4e2" d="M 137.5,68.5 C 141.444,69.102 143.444,71.102 143.5,74.5C 141.999,73.2485 140.332,72.2485 138.5,71.5C 137.614,70.675 137.281,69.675 137.5,68.5 Z"/></g>
<g><path style="opacity:1" fill="#d9d9d9" d="M 63.5,70.5 C 64.8734,70.3433 66.2068,70.51 67.5,71C 66.2986,71.9025 65.4652,73.0692 65,74.5C 64.2086,73.255 63.7086,71.9217 63.5,70.5 Z"/></g>
<g><path style="opacity:1" fill="#f5f2eb" d="M 176.5,69.5 C 182.53,68.8679 185.863,71.5346 186.5,77.5C 183.854,86.0825 181.521,94.7492 179.5,103.5C 177.076,103.808 174.743,103.474 172.5,102.5C 170.527,99.3603 168.36,96.3603 166,93.5C 165.502,96.4816 165.335,99.4816 165.5,102.5C 163.234,102.859 161.401,102.192 160,100.5C 158.927,96.9164 158.26,93.2498 158,89.5C 153.284,84.6879 153.451,80.1879 158.5,76C 162.898,74.6215 166.398,75.7882 169,79.5C 170,82.5 171,85.5 172,88.5C 172.082,83.4945 172.082,78.4945 172,73.5C 173.397,71.9297 174.897,70.5964 176.5,69.5 Z"/></g>
<g><path style="opacity:1" fill="#67b5de" d="M 72.5,70.5 C 76.1916,69.9712 79.3583,70.9712 82,73.5C 83.4594,77.7998 84.7928,82.1331 86,86.5C 86.3333,82.8333 86.6667,79.1667 87,75.5C 91,70.1667 95,70.1667 99,75.5C 99.6667,77.8333 99.6667,80.1667 99,82.5C 96.5,88.1667 94,93.8333 91.5,99.5C 88.854,100.551 86.1873,101.051 83.5,101C 81.2901,97.0509 79.4568,92.8842 78,88.5C 78.4994,92.5138 78.3328,96.5138 77.5,100.5C 76.5846,102.98 75.0846,103.647 73,102.5C 71.0076,94.8642 69.1743,87.1975 67.5,79.5C 67.3769,75.4052 69.0435,72.4052 72.5,70.5 Z"/></g>
<g><path style="opacity:1" fill="#dfdfdf" d="M 149.5,71.5 C 152.147,72.0729 154.813,72.7396 157.5,73.5C 152.502,76.158 150.835,80.158 152.5,85.5C 151.167,86.8333 149.833,86.8333 148.5,85.5C 150.743,80.978 151.076,76.3114 149.5,71.5 Z"/></g>
<g><path style="opacity:1" fill="#e6e6e6" d="M 101.5,75.5 C 103.364,74.2072 105.364,74.2072 107.5,75.5C 106.009,76.2436 104.509,76.9103 103,77.5C 102.722,76.5842 102.222,75.9175 101.5,75.5 Z"/></g>
<g><path style="opacity:1" fill="#1c1913" d="M 129.5,76.5 C 133.367,75.7747 136.034,77.1081 137.5,80.5C 136.034,83.8919 133.367,85.2253 129.5,84.5C 129.5,81.8333 129.5,79.1667 129.5,76.5 Z"/></g>
<g><path style="opacity:1" fill="#0f0f0f" d="M 39.5,78.5 C 42.8499,78.335 46.1832,78.5017 49.5,79C 51.22,82.0859 50.5534,84.4192 47.5,86C 45.1902,86.4966 42.8568,86.6633 40.5,86.5C 40.4249,83.7938 40.0916,81.1272 39.5,78.5 Z"/></g>
<g><path style="opacity:1" fill="#be4b32" d="M 198.5,74.5 C 202.257,74.2864 202.924,75.2864 200.5,77.5C 200.568,80.3985 200.735,83.3985 201,86.5C 197.455,92.2087 193.121,92.8754 188,88.5C 185.846,84.9416 186.346,81.7749 189.5,79C 192.121,78.0615 194.788,77.2281 197.5,76.5C 197.863,75.8165 198.196,75.1499 198.5,74.5 Z"/></g>
<g><path style="opacity:1" fill="#cfcfcf" d="M 42.5,80.5 C 44.1667,80.5 45.8333,80.5 47.5,80.5C 47.5,81.5 47.5,82.5 47.5,83.5C 45.8333,83.5 44.1667,83.5 42.5,83.5C 42.5,82.5 42.5,81.5 42.5,80.5 Z"/></g>
<g><path style="opacity:1" fill="#9ec345" d="M 109.5,77.5 C 110.552,77.3505 111.552,77.5172 112.5,78C 112.382,81.0299 112.215,84.1965 112,87.5C 108.61,91.0324 104.943,91.3658 101,88.5C 100.333,86.5 100.333,84.5 101,82.5C 103.795,80.4999 106.629,78.8333 109.5,77.5 Z"/></g>
<g><path style="opacity:1" fill="#dee2e9" d="M 115.5,79.5 C 116.693,79.9704 117.36,80.9704 117.5,82.5C 118.632,88.8246 119.632,95.1579 120.5,101.5C 116.459,99.469 113.792,100.636 112.5,105C 112.735,105.873 113.069,106.707 113.5,107.5C 111.833,108.5 110.5,109.833 109.5,111.5C 109.715,103.293 111.548,95.2928 115,87.5C 115.497,84.854 115.664,82.1873 115.5,79.5 Z"/></g>
<g><path style="opacity:1" fill="#d93130" d="M 60.5,86.5 C 63.8329,86.0268 65.9996,87.3601 67,90.5C 68.8152,100.525 64.6486,104.691 54.5,103C 49.7762,100.565 48.2762,96.7314 50,91.5C 51.4025,87.8642 53.9025,86.8642 57.5,88.5C 55.661,90.5271 55.161,92.8604 56,95.5C 57.3876,96.5536 58.8876,96.7203 60.5,96C 61.4701,92.5663 61.4701,89.3996 60.5,86.5 Z"/></g>
<g><path style="opacity:1" fill="#e1783d" d="M 143.5,87.5 C 145.195,88.0114 146.861,88.6781 148.5,89.5C 145.598,91.4715 144.598,93.9715 145.5,97C 147.112,97.7203 148.612,97.5536 150,96.5C 150.497,94.1902 150.663,91.8568 150.5,89.5C 156.204,89.1464 158.037,91.813 156,97.5C 154.866,101.983 152.033,103.816 147.5,103C 144.486,102.196 141.653,101.029 139,99.5C 138.269,94.7093 139.769,90.7093 143.5,87.5 Z"/></g>
<g><path style="opacity:1" fill="#e6e6e6" d="M 132.5,94.5 C 133.5,94.5 134.5,94.5 135.5,94.5C 135.292,96.9201 135.626,99.2534 136.5,101.5C 135.349,102.731 134.183,102.731 133,101.5C 132.503,99.1902 132.337,96.8568 132.5,94.5 Z"/></g>
<g><path style="opacity:1" fill="#bf452c" d="M 187.5,92.5 C 190.609,92.6553 193.609,93.3219 196.5,94.5C 195.5,97.1667 194.5,99.8333 193.5,102.5C 191.955,103.452 190.288,103.785 188.5,103.5C 188.276,99.8212 187.942,96.1545 187.5,92.5 Z"/></g>
<g><path style="opacity:1" fill="#f0f0f0" d="M 96.5,94.5 C 97.6935,94.9704 98.3601,95.9704 98.5,97.5C 100.578,103.006 99.245,104.006 94.5,100.5C 95.3721,98.5504 96.0388,96.5504 96.5,94.5 Z"/></g>
<g><path style="opacity:0.478" fill="#0a5cff" d="M 115.5,92.5 C 116.874,94.5167 116.707,96.5167 115,98.5C 115.135,96.5753 115.302,94.5753 115.5,92.5 Z"/></g>
<g><path style="opacity:1" fill="#9cc638" d="M 101.5,92.5 C 104.167,92.8333 106.833,93.1667 109.5,93.5C 108.539,96.4261 107.873,99.4261 107.5,102.5C 105.833,102.5 104.167,102.5 102.5,102.5C 101.949,99.1933 101.616,95.8599 101.5,92.5 Z"/></g>
<g><path style="opacity:1" fill="#fdada6" d="M 53.5,99.5 C 56.4041,100.263 59.0707,100.596 61.5,100.5C 61.0004,101.881 60.0004,102.547 58.5,102.5C 56.1309,102.405 54.4642,101.405 53.5,99.5 Z"/></g>
<g><path style="opacity:1" fill="#c6dadb" d="M 138.5,103.5 C 140.527,103.338 142.527,103.505 144.5,104C 145.651,108.805 143.651,110.472 138.5,109C 137.248,107.172 137.248,105.339 138.5,103.5 Z"/></g>
<g><path style="opacity:1" fill="#d3d4cf" d="M 94.5,103.5 C 96.4835,103.383 98.1502,104.05 99.5,105.5C 102.034,104.212 104.534,104.212 107,105.5C 107.684,106.784 107.517,107.951 106.5,109C 104.231,109.758 102.064,109.591 100,108.5C 99.023,110.74 98.523,113.073 98.5,115.5C 96.5328,115.739 94.6995,115.406 93,114.5C 92.2423,110.638 92.7423,106.972 94.5,103.5 Z"/></g>
<g><path style="opacity:1" fill="#f5ba41" d="M 101.5,105.5 C 102.833,105.5 104.167,105.5 105.5,105.5C 105.5,106.5 105.5,107.5 105.5,108.5C 104.167,108.5 102.833,108.5 101.5,108.5C 101.5,107.5 101.5,106.5 101.5,105.5 Z"/></g>
<g><path style="opacity:1" fill="#eeae24" d="M 94.5,105.5 C 95.5,105.5 96.5,105.5 97.5,105.5C 97.5,108.167 97.5,110.833 97.5,113.5C 96.5,113.5 95.5,113.5 94.5,113.5C 94.5,110.833 94.5,108.167 94.5,105.5 Z"/></g>
<g><path style="opacity:1" fill="#c5c3c3" d="M 118.5,103.5 C 115.987,105.013 116.32,106.346 119.5,107.5C 120.386,106.675 120.719,105.675 120.5,104.5C 123.068,103.55 125.568,103.55 128,104.5C 129.14,107.528 128.306,109.695 125.5,111C 127.688,112.964 127.688,114.464 125.5,115.5C 122.964,115.034 120.464,115.7 118,117.5C 116.93,117.472 116.097,117.139 115.5,116.5C 121.452,116.391 122.786,113.891 119.5,109C 118.552,108.517 117.552,108.351 116.5,108.5C 113.758,106.301 113.924,104.301 117,102.5C 117.765,102.57 118.265,102.903 118.5,103.5 Z"/></g>
<g><path style="opacity:1" fill="#afce47" d="M 124.5,104.5 C 127.389,104.999 128.056,106.499 126.5,109C 125.552,109.483 124.552,109.649 123.5,109.5C 123.366,107.708 123.699,106.042 124.5,104.5 Z"/></g>
<g><path style="opacity:1" fill="#b7d15d" d="M 118.5,103.5 C 119.492,103.328 120.158,103.662 120.5,104.5C 120.719,105.675 120.386,106.675 119.5,107.5C 116.32,106.346 115.987,105.013 118.5,103.5 Z"/></g>
<g><path style="opacity:1" fill="#e0e6e7" d="M 131.5,104.5 C 133.144,104.286 134.644,104.62 136,105.5C 136.498,108.817 136.665,112.15 136.5,115.5C 134.533,115.739 132.699,115.406 131,114.5C 130.253,111.076 130.42,107.743 131.5,104.5 Z"/></g>
<g><path style="opacity:1" fill="#61b8bf" d="M 132.5,105.5 C 133.496,105.414 134.329,105.748 135,106.5C 135.497,109.146 135.664,111.813 135.5,114.5C 134.5,114.5 133.5,114.5 132.5,114.5C 132.5,111.5 132.5,108.5 132.5,105.5 Z"/></g>
<g><path style="opacity:1" fill="#171d80" d="M 201.5,101.5 C 205.67,100.993 208.67,102.659 210.5,106.5C 214.33,107.469 217.83,107.469 221,106.5C 218.961,108.712 217.795,111.379 217.5,114.5C 218.52,116.432 218.687,118.432 218,120.5C 211.159,125.845 203.326,128.179 194.5,127.5C 185.279,128.383 177.945,125.216 172.5,118C 172.99,116.018 173.99,114.351 175.5,113C 182.289,109 189.623,107.5 197.5,108.5C 197.961,105.697 199.295,103.363 201.5,101.5 Z"/></g>
<g><path style="opacity:1" fill="#e0e0d6" d="M 100.5,111.5 C 102.527,111.338 104.527,111.505 106.5,112C 107.517,113.049 107.684,114.216 107,115.5C 104.868,116.78 102.702,116.78 100.5,115.5C 99.3744,114.192 99.3744,112.858 100.5,111.5 Z"/></g>
<g><path style="opacity:1" fill="#abcb3f" d="M 116.5,108.5 C 117.552,108.351 118.552,108.517 119.5,109C 122.786,113.891 121.452,116.391 115.5,116.5C 115.712,114.616 116.712,113.283 118.5,112.5C 117.37,111.378 116.703,110.044 116.5,108.5 Z"/></g>
<g><path style="opacity:1" fill="#c9ddde" d="M 137.5,111.5 C 139.857,111.337 142.19,111.503 144.5,112C 145.517,113.049 145.684,114.216 145,115.5C 142.936,116.591 140.769,116.758 138.5,116C 137.62,114.644 137.286,113.144 137.5,111.5 Z"/></g>
<g><path style="opacity:1" fill="#d1cac8" d="M 78.5,101.5 C 80.8398,102.086 83.0065,103.086 85,104.5C 90.0657,101.106 92.0657,102.44 91,108.5C 89.9326,109.191 88.7659,109.691 87.5,110C 90.793,114.696 89.793,116.529 84.5,115.5C 82.941,116.447 81.2743,117.113 79.5,117.5C 76.9964,116.28 74.4964,115.28 72,114.5C 71.8374,112.613 72.6707,111.113 74.5,110C 75.4491,109.383 76.2825,109.549 77,110.5C 78.0456,107.541 78.5456,104.541 78.5,101.5 Z"/></g>
<g><path style="opacity:1" fill="#e05841" d="M 79.5,108.5 C 83.2635,109.385 84.2635,111.552 82.5,115C 78.2324,115.717 77.5658,114.55 80.5,111.5C 79.8728,110.583 79.5394,109.583 79.5,108.5 Z"/></g>
<g><path style="opacity:1" fill="#de4a30" d="M 74.5,111.5 C 77.0118,112.216 77.0118,113.216 74.5,114.5C 73.4376,113.575 73.4376,112.575 74.5,111.5 Z"/></g>
<g><path style="opacity:1" fill="#ec6f58" d="M 87.5,103.5 C 90.9563,104.536 91.2896,106.203 88.5,108.5C 85.1396,107.209 84.8063,105.543 87.5,103.5 Z"/></g>
<g><path style="opacity:1" fill="#dd4b33" d="M 79.5,103.5 C 80.9217,103.709 82.255,104.209 83.5,105C 81.2963,107.069 79.963,106.569 79.5,103.5 Z"/></g>
<g><path style="opacity:1" fill="#e45c44" d="M 84.5,111.5 C 86.3588,111.461 87.6921,112.294 88.5,114C 86.3144,115.398 84.9811,114.564 84.5,111.5 Z"/></g>
<g><path style="opacity:1" fill="#a3c72d" d="M 125.5,115.5 C 122.725,115.166 122.059,113.833 123.5,111.5C 125.111,112.32 125.778,113.654 125.5,115.5 Z"/></g>
<g><path style="opacity:1" fill="#eea716" d="M 101.5,112.5 C 102.978,112.238 104.311,112.571 105.5,113.5C 104.833,113.833 104.167,114.167 103.5,114.5C 102.287,114.253 101.62,113.586 101.5,112.5 Z"/></g>
<g><path style="opacity:1" fill="#d7dbc0" d="M 116.5,108.5 C 116.703,110.044 117.37,111.378 118.5,112.5C 116.712,113.283 115.712,114.616 115.5,116.5C 110.844,117.028 109.677,115.362 112,111.5C 113.751,110.778 115.251,109.778 116.5,108.5 Z"/></g>
<g><path style="opacity:1" fill="#f4d324" d="M 205.5,119.5 C 204.167,119.5 202.833,119.5 201.5,119.5C 201.795,117.265 201.461,115.265 200.5,113.5C 200.336,110.813 200.503,108.146 201,105.5C 203,104.167 205,104.167 207,105.5C 207.695,108.996 207.195,112.33 205.5,115.5C 205.833,115.833 206.167,116.167 206.5,116.5C 207.318,114.892 207.985,113.225 208.5,111.5C 210.006,110.253 211.506,110.253 213,111.5C 213.311,113.556 213.811,115.556 214.5,117.5C 212.639,118.528 211.305,120.028 210.5,122C 209.207,122.49 207.873,122.657 206.5,122.5C 206.737,121.209 206.404,120.209 205.5,119.5 Z"/></g>
<g><path style="opacity:1" fill="#c6b934" d="M 184.5,117.5 C 190.136,114.464 191.803,116.13 189.5,122.5C 186.167,122.5 184.5,120.833 184.5,117.5 Z"/></g>
<g><path style="opacity:1" fill="#f3df11" d="M 192.5,115.5 C 193.978,115.238 195.311,115.571 196.5,116.5C 195.248,118.001 194.248,119.668 193.5,121.5C 192.534,119.604 192.201,117.604 192.5,115.5 Z"/></g>
<g><path style="opacity:1" fill="#7b7149" d="M 200.5,113.5 C 201.461,115.265 201.795,117.265 201.5,119.5C 202.833,119.5 204.167,119.5 205.5,119.5C 204.081,120.451 202.415,120.784 200.5,120.5C 200.5,118.167 200.5,115.833 200.5,113.5 Z"/></g>
<g><path style="opacity:1" fill="#deca27" d="M 184.5,117.5 C 182.319,122.769 179.985,122.769 177.5,117.5C 178.517,114.972 179.684,114.972 181,117.5C 182.14,114.982 183.306,114.982 184.5,117.5 Z"/></g>
<g><path style="opacity:1" fill="#d9c42d" d="M 196.5,119.5 C 197.675,119.281 198.675,119.614 199.5,120.5C 197.948,121.798 196.948,121.465 196.5,119.5 Z"/></g>
</svg>
